<svg xmlns="http://www.w3.org/2000/svg" xmlns:xlink="http://www.w3.org/1999/xlink" width="1728" zoomAndPan="magnify" viewBox="0 0 1296 1727.999927" height="2304" preserveAspectRatio="xMidYMid meet" version="1.0"><path fill="#c45b52" d="M 1007.21875 1116.363281 L 628.453125 1178.246094 C 628.453125 1178.246094 277.726562 1304.65625 154.46875 1113.191406 C 0 873.0625 168.222656 696.9375 251.804688 619.1875 C 322.691406 553.070312 322.691406 434.066406 323.21875 420.3125 C 323.21875 236.78125 354.429688 126.769531 457.058594 66.472656 C 569.203125 0.359375 661.25 14.109375 661.25 14.109375 C 661.25 14.109375 788.742188 8.820312 862.800781 124.652344 C 913.054688 203.460938 926.28125 309.773438 936.332031 420.3125 C 953.257812 609.664062 1130.476562 640.34375 1134.179688 831.808594 C 1138.410156 1026.976562 1007.21875 1116.363281 1007.21875 1116.363281 Z M 1007.21875 1116.363281 L 628.453125 1178.246094 C 628.453125 1178.246094 277.726562 1304.65625 154.46875 1113.191406 C 0 873.0625 168.222656 696.9375 251.804688 619.1875 C 322.691406 553.070312 322.691406 434.066406 323.21875 420.3125 C 323.21875 236.78125 354.429688 126.769531 457.058594 66.472656 C 569.203125 0.359375 661.25 14.109375 661.25 14.109375 C 661.25 14.109375 788.742188 8.820312 862.800781 124.652344 C 913.054688 203.460938 926.28125 309.773438 936.332031 420.3125 C 953.257812 609.664062 1130.476562 640.34375 1134.179688 831.808594 C 1138.410156 1026.976562 1007.21875 1116.363281 1007.21875 1116.363281 Z M 1007.21875 1116.363281 " fill-opacity="1" fill-rule="nonzero"/><path fill="#0e7658" d="M 612.054688 815.414062 C 746.421875 852.4375 862.800781 766.753906 862.800781 766.753906 C 862.800781 766.753906 1014.09375 823.347656 1047.421875 874.121094 C 1102.4375 958.746094 1184.960938 1461.742188 1032.082031 1542.667969 C 892.953125 1616.1875 646.96875 1516.222656 533.234375 1467.03125 C 448.0625 1571.757812 340.148438 1647.390625 191.5 1561.707031 C 23.804688 1464.386719 141.773438 932.300781 177.214844 876.765625 C 235.40625 785.792969 391.460938 767.28125 391.460938 767.28125 C 391.460938 767.28125 477.160156 778.386719 612.054688 815.414062 Z M 612.054688 815.414062 C 746.421875 852.4375 862.800781 766.753906 862.800781 766.753906 C 862.800781 766.753906 1014.09375 823.347656 1047.421875 874.121094 C 1102.4375 958.746094 1184.960938 1461.742188 1032.082031 1542.667969 C 892.953125 1616.1875 646.96875 1516.222656 533.234375 1467.03125 C 448.0625 1571.757812 340.148438 1647.390625 191.5 1561.707031 C 23.804688 1464.386719 141.773438 932.300781 177.214844 876.765625 C 235.40625 785.792969 391.460938 767.28125 391.460938 767.28125 C 391.460938 767.28125 477.160156 778.386719 612.054688 815.414062 Z M 612.054688 815.414062 " fill-opacity="1" fill-rule="nonzero"/><path fill="#feac7c" d="M 818.894531 753 C 842.699219 760.933594 862.800781 766.753906 862.800781 766.753906 C 862.800781 766.753906 833.707031 876.765625 706.746094 911.144531 C 613.640625 860.898438 531.117188 842.386719 531.117188 842.386719 L 500.964844 892.632812 C 411.035156 848.734375 391.988281 766.753906 391.988281 766.753906 C 391.988281 766.753906 492.5 737.664062 516.304688 717.5625 C 537.464844 699.582031 532.703125 601.730469 531.644531 581.105469 C 471.339844 555.1875 442.773438 504.941406 429.546875 459.453125 C 396.222656 462.097656 368.714844 402.859375 384.054688 375.886719 C 400.453125 346.796875 418.441406 366.367188 418.441406 366.367188 C 507.3125 388.578125 646.4375 257.410156 689.816406 147.394531 C 690.875 145.28125 693.519531 145.808594 694.050781 147.925781 C 708.859375 220.914062 777.632812 326.695312 833.707031 366.367188 C 833.707031 366.367188 851.691406 346.796875 868.089844 375.886719 C 884.488281 404.976562 851.691406 472.675781 814.132812 457.339844 C 814.132812 455.75 814.132812 454.164062 814.660156 452.578125 C 796.675781 508.644531 768.109375 552.542969 722.613281 577.402344 L 723.671875 577.402344 C 723.671875 577.402344 723.144531 588.507812 722.613281 603.847656 C 731.078125 604.375 752.769531 607.550781 757.527344 627.648438 C 783.449219 628.707031 794.558594 646.160156 792.972656 656.738281 C 810.429688 655.679688 819.953125 695.878906 809.371094 704.871094 C 825.242188 703.28125 824.183594 736.074219 818.894531 753 Z M 818.894531 753 C 842.699219 760.933594 862.800781 766.753906 862.800781 766.753906 C 862.800781 766.753906 833.707031 876.765625 706.746094 911.144531 C 613.640625 860.898438 531.117188 842.386719 531.117188 842.386719 L 500.964844 892.632812 C 411.035156 848.734375 391.988281 766.753906 391.988281 766.753906 C 391.988281 766.753906 492.5 737.664062 516.304688 717.5625 C 537.464844 699.582031 532.703125 601.730469 531.644531 581.105469 C 471.339844 555.1875 442.773438 504.941406 429.546875 459.453125 C 396.222656 462.097656 368.714844 402.859375 384.054688 375.886719 C 400.453125 346.796875 418.441406 366.367188 418.441406 366.367188 C 507.3125 388.578125 646.4375 257.410156 689.816406 147.394531 C 690.875 145.28125 693.519531 145.808594 694.050781 147.925781 C 708.859375 220.914062 777.632812 326.695312 833.707031 366.367188 C 833.707031 366.367188 851.691406 346.796875 868.089844 375.886719 C 884.488281 404.976562 851.691406 472.675781 814.132812 457.339844 C 814.132812 455.75 814.132812 454.164062 814.660156 452.578125 C 796.675781 508.644531 768.109375 552.542969 722.613281 577.402344 L 723.671875 577.402344 C 723.671875 577.402344 723.144531 588.507812 722.613281 603.847656 C 731.078125 604.375 752.769531 607.550781 757.527344 627.648438 C 783.449219 628.707031 794.558594 646.160156 792.972656 656.738281 C 810.429688 655.679688 819.953125 695.878906 809.371094 704.871094 C 825.242188 703.28125 824.183594 736.074219 818.894531 753 Z M 818.894531 753 " fill-opacity="1" fill-rule="nonzero"/><path fill="#000000" d="M 545.398438 367.953125 C 545.398438 356.316406 551.746094 346.265625 559.152344 346.265625 C 566.558594 346.265625 572.90625 355.785156 572.90625 367.953125 C 572.90625 379.589844 566.558594 389.636719 559.152344 389.636719 C 551.746094 389.636719 545.398438 380.117188 545.398438 367.953125 Z M 699.339844 389.636719 C 707.273438 389.636719 713.09375 380.117188 713.09375 367.953125 C 713.09375 356.316406 706.746094 346.265625 699.339844 346.265625 C 691.933594 346.265625 685.585938 355.785156 685.585938 367.953125 C 685.054688 380.117188 691.402344 389.636719 699.339844 389.636719 Z M 627.925781 437.238281 C 629.511719 395.984375 630.039062 354.199219 628.980469 312.945312 C 628.980469 307.65625 621.046875 307.65625 621.046875 312.945312 C 622.105469 354.199219 622.105469 395.984375 619.988281 437.238281 C 619.460938 442 627.394531 442 627.925781 437.238281 Z M 584.546875 480.609375 C 593.539062 481.667969 602.003906 483.785156 609.410156 489.074219 C 616.816406 494.363281 622.105469 501.765625 627.925781 508.644531 C 629.511719 510.230469 632.15625 510.230469 633.742188 508.644531 C 635.328125 507.054688 635.328125 504.941406 633.742188 502.824219 C 627.394531 494.890625 621.574219 486.957031 613.113281 481.667969 C 604.648438 475.851562 595.125 473.207031 585.074219 472.148438 C 582.957031 472.148438 580.84375 474.261719 580.84375 476.378906 C 580.3125 479.023438 582.429688 480.609375 584.546875 480.609375 Z M 606.765625 613.898438 C 634.800781 617.597656 662.839844 612.308594 689.289062 602.789062 C 701.984375 598.027344 714.679688 592.738281 725.789062 584.277344 C 730.019531 581.105469 725.789062 574.226562 721.558594 577.402344 C 712.5625 584.277344 701.984375 589.039062 691.402344 593.269531 C 678.707031 598.027344 665.484375 602.261719 652.257812 604.375 C 625.277344 609.136719 598.300781 605.960938 572.378906 598.027344 C 559.683594 594.328125 546.457031 589.566406 535.347656 581.632812 C 531.117188 578.988281 526.886719 585.863281 531.117188 588.507812 C 541.167969 595.382812 552.804688 600.144531 563.914062 603.847656 C 578.199219 609.136719 592.480469 612.308594 606.765625 613.898438 Z M 539.582031 836.570312 C 553.335938 793.726562 566.558594 750.886719 580.3125 708.042969 C 583.488281 697.464844 586.660156 686.886719 590.363281 676.308594 C 593.011719 667.316406 596.183594 658.855469 601.472656 650.921875 C 612.054688 635.582031 630.570312 630.820312 647.496094 627.648438 C 672.359375 622.359375 697.222656 617.070312 722.085938 612.308594 C 726.847656 611.253906 724.730469 603.847656 719.96875 604.90625 C 697.222656 609.664062 674.476562 614.425781 651.730469 619.1875 C 633.742188 622.886719 614.167969 626.0625 600.945312 639.8125 C 587.191406 654.09375 582.957031 675.25 577.140625 693.761719 C 570.261719 715.976562 563.386719 738.191406 555.980469 760.40625 C 548.042969 785.265625 540.109375 810.125 532.703125 834.980469 C 530.058594 839.742188 537.992188 841.859375 539.582031 836.570312 Z M 680.824219 653.035156 C 705.15625 641.398438 731.609375 634.523438 758.585938 632.410156 C 763.878906 631.878906 763.878906 623.945312 758.585938 624.476562 C 730.019531 626.589844 702.511719 633.996094 676.59375 646.160156 C 672.359375 648.277344 676.59375 655.152344 680.824219 653.035156 Z M 790.855469 654.09375 C 761.230469 655.152344 731.609375 659.382812 702.511719 666.257812 C 697.753906 667.316406 699.867188 675.25 704.628906 673.664062 C 732.667969 666.789062 761.761719 662.554688 790.855469 662.027344 C 795.617188 662.027344 795.617188 654.09375 790.855469 654.09375 Z M 725.789062 696.9375 C 720.5 697.464844 720.5 705.398438 725.789062 704.871094 C 754.882812 702.753906 783.980469 699.582031 812.546875 703.28125 C 817.835938 703.8125 817.304688 695.878906 812.546875 695.347656 C 783.980469 691.648438 754.355469 694.820312 725.789062 696.9375 Z M 780.804688 803.246094 C 791.386719 802.71875 799.320312 792.140625 804.609375 784.207031 C 810.957031 775.214844 815.191406 765.164062 817.304688 754.058594 C 818.363281 749.296875 810.429688 747.183594 809.898438 751.941406 C 808.3125 760.40625 805.140625 768.867188 800.378906 776.273438 C 796.144531 782.621094 790.328125 791.609375 782.921875 794.785156 C 779.21875 796.371094 775.515625 794.257812 773.929688 791.082031 C 771.8125 786.851562 772.339844 781.5625 772.871094 777.332031 C 774.457031 767.28125 776.042969 757.230469 778.6875 747.183594 C 779.21875 745.066406 777.632812 741.894531 774.984375 742.421875 C 757.527344 744.007812 740.601562 745.597656 723.144531 747.183594 C 722.085938 747.183594 721.558594 747.710938 721.027344 748.242188 C 721.027344 748.242188 720.5 748.769531 720.5 748.769531 C 719.96875 749.296875 719.441406 750.355469 719.441406 751.414062 C 718.382812 770.453125 717.855469 789.496094 714.679688 808.535156 C 713.09375 820.703125 709.917969 833.394531 701.457031 842.386719 C 696.695312 847.148438 690.875 850.320312 684.527344 851.90625 C 683.46875 852.4375 682.410156 852.964844 681.882812 854.023438 C 681.351562 854.550781 680.296875 855.082031 680.296875 856.136719 C 675.535156 867.773438 670.773438 879.410156 665.484375 891.046875 C 664.425781 893.164062 666.542969 895.277344 668.128906 895.808594 C 670.242188 896.335938 672.359375 895.277344 672.890625 893.164062 C 677.648438 882.054688 682.410156 870.417969 687.171875 859.3125 C 699.339844 855.082031 709.390625 847.148438 715.210938 835.511719 C 722.085938 821.230469 723.144531 804.304688 724.203125 788.4375 C 725.261719 777.332031 725.789062 766.222656 726.316406 755.117188 C 740.601562 754.058594 754.882812 752.472656 769.167969 751.414062 C 766.523438 761.992188 764.40625 772.570312 763.878906 783.148438 C 763.878906 791.609375 769.167969 803.777344 780.804688 803.246094 Z M 217.417969 841.859375 C 242.8125 854.550781 261.855469 877.824219 270.320312 904.796875 C 271.90625 909.558594 279.3125 907.441406 277.726562 902.683594 C 268.734375 873.59375 248.101562 848.734375 221.121094 834.980469 C 216.890625 832.335938 212.660156 839.214844 217.417969 841.859375 Z M 495.671875 892.105469 C 459.171875 945.523438 423.730469 1000.003906 389.34375 1055.011719 C 372.945312 1081.457031 356.546875 1107.371094 340.675781 1133.816406 C 333.269531 1089.390625 325.335938 1044.433594 315.8125 1000.53125 C 313.167969 987.308594 309.996094 973.558594 306.820312 960.335938 C 305.761719 955.574219 297.828125 957.691406 299.414062 962.449219 C 309.996094 1009.523438 319.515625 1056.597656 327.453125 1103.667969 C 329.566406 1116.894531 332.210938 1130.644531 334.328125 1144.394531 C 317.402344 1171.898438 300.472656 1199.933594 283.542969 1227.433594 C 265.03125 1257.582031 247.042969 1287.730469 228.527344 1317.878906 C 225.882812 1322.109375 232.761719 1326.34375 235.40625 1322.109375 C 269.261719 1266.574219 302.589844 1211.039062 336.445312 1156.03125 C 371.886719 1098.378906 407.332031 1041.257812 443.832031 984.664062 C 462.875 955.046875 482.449219 925.425781 502.550781 896.335938 C 505.726562 891.574219 498.847656 887.875 495.671875 892.105469 Z M 266.085938 1219.5 C 235.40625 1221.089844 205.78125 1231.667969 180.917969 1249.121094 C 176.6875 1251.765625 180.917969 1259.171875 185.148438 1255.996094 C 208.957031 1239.070312 237.519531 1229.550781 266.617188 1227.4375 C 271.378906 1226.90625 271.378906 1218.972656 266.085938 1219.5 Z M 989.230469 1335.863281 C 950.613281 1323.699219 910.9375 1313.121094 871.792969 1304.128906 C 888.191406 1296.722656 905.648438 1292.492188 924.164062 1293.019531 C 943.738281 1294.078125 962.78125 1299.898438 981.296875 1304.65625 C 986.058594 1305.714844 988.171875 1298.308594 983.414062 1297.253906 C 963.839844 1291.960938 943.738281 1286.144531 923.105469 1285.085938 C 916.230469 1284.558594 908.824219 1285.085938 902.476562 1286.144531 C 903.003906 1285.617188 903.535156 1284.558594 903.535156 1284.027344 C 907.238281 1226.90625 922.046875 1171.371094 933.6875 1115.304688 C 936.332031 1102.613281 938.976562 1089.917969 941.09375 1076.695312 C 942.152344 1071.933594 934.214844 1069.289062 933.6875 1074.578125 C 929.453125 1099.4375 923.636719 1124.296875 918.34375 1148.628906 C 911.996094 1177.71875 905.648438 1206.808594 901.417969 1235.898438 C 898.773438 1251.765625 896.65625 1267.632812 895.597656 1283.5 C 895.597656 1285.085938 896.128906 1286.144531 897.183594 1286.671875 C 883.960938 1289.316406 871.792969 1294.078125 859.625 1300.425781 C 856.453125 1299.898438 853.808594 1298.839844 850.632812 1298.308594 C 804.082031 1287.730469 757.527344 1278.738281 710.449219 1271.863281 C 685.585938 1268.160156 660.191406 1264.988281 635.328125 1262.34375 C 636.386719 1259.699219 637.445312 1257.054688 639.03125 1253.882812 C 654.902344 1215.800781 670.242188 1177.71875 685.054688 1139.105469 C 698.808594 1104.199219 711.507812 1069.289062 724.203125 1033.851562 C 734.253906 1005.820312 743.773438 977.789062 752.769531 949.757812 C 753.824219 947.113281 754.355469 943.9375 755.414062 941.292969 C 755.941406 940.234375 755.414062 938.121094 754.355469 937.589844 C 749.066406 932.832031 743.246094 928.601562 737.957031 924.367188 C 729.492188 918.023438 720.5 910.617188 710.976562 906.386719 C 706.214844 904.269531 702.511719 911.144531 706.746094 913.261719 C 716.265625 917.492188 724.730469 924.367188 732.667969 930.714844 C 737.425781 934.417969 742.1875 938.121094 746.949219 942.351562 C 738.484375 968.269531 730.019531 994.183594 720.5 1020.101562 C 708.332031 1054.480469 695.636719 1088.859375 682.410156 1123.238281 C 667.597656 1161.320312 652.785156 1199.402344 636.917969 1236.957031 C 621.046875 1275.039062 604.648438 1312.589844 587.71875 1350.144531 C 571.851562 1384.523438 555.449219 1418.375 537.464844 1451.695312 C 535.347656 1455.398438 533.761719 1459.097656 531.644531 1462.800781 C 529 1467.03125 535.878906 1471.265625 538.523438 1467.03125 C 556.507812 1434.769531 572.90625 1401.449219 588.25 1367.597656 C 603.0625 1335.332031 617.34375 1303.070312 631.097656 1270.804688 C 677.648438 1276.09375 724.203125 1282.441406 770.226562 1291.433594 C 816.777344 1299.898438 862.800781 1310.476562 908.824219 1322.109375 C 934.746094 1328.988281 960.664062 1336.390625 986.058594 1343.796875 C 991.875 1344.855469 993.992188 1336.921875 989.230469 1335.863281 Z M 1033.667969 904.796875 C 1011.449219 925.957031 990.820312 948.699219 972.832031 973.558594 C 969.660156 977.789062 976.535156 981.492188 979.710938 977.789062 C 997.167969 953.457031 1017.269531 930.714844 1039.488281 910.617188 C 1042.660156 906.914062 1037.371094 901.097656 1033.667969 904.796875 Z M 700.925781 273.277344 C 717.324219 271.160156 733.722656 278.035156 743.773438 291.257812 C 745.363281 292.847656 748.007812 292.847656 749.59375 291.257812 C 751.179688 289.671875 751.179688 287.558594 749.59375 285.441406 C 738.484375 271.160156 719.441406 263.226562 700.925781 265.34375 C 698.808594 265.34375 696.695312 266.929688 696.695312 269.574219 C 697.222656 271.160156 698.808594 273.804688 700.925781 273.277344 Z M 402.039062 391.222656 C 409.445312 398.628906 415.265625 408.148438 417.910156 418.199219 C 415.792969 416.613281 413.148438 415.554688 410.503906 415.023438 C 405.742188 413.96875 403.628906 421.371094 408.386719 422.429688 C 413.148438 423.488281 417.382812 426.660156 420.027344 430.894531 C 422.144531 434.066406 427.433594 433.007812 427.433594 428.777344 C 426.375 412.378906 419.496094 397.042969 407.859375 385.40625 C 403.628906 381.703125 398.335938 387.523438 402.039062 391.222656 Z M 844.285156 395.457031 C 845.871094 394.398438 846.929688 391.753906 845.871094 390.167969 C 844.8125 388.578125 842.167969 387.523438 840.582031 388.578125 C 828.945312 397.042969 820.480469 409.734375 818.363281 423.488281 C 817.835938 425.605469 818.894531 427.191406 820.480469 428.25 C 822.066406 428.777344 824.710938 428.25 825.242188 426.660156 C 826.300781 425.074219 826.828125 424.546875 828.414062 423.488281 C 829.472656 422.957031 831.058594 422.429688 832.117188 422.957031 C 834.234375 423.488281 836.351562 422.429688 836.878906 420.3125 C 837.410156 418.199219 836.351562 415.554688 834.234375 415.554688 C 832.117188 415.023438 830.53125 415.554688 828.414062 415.554688 C 832.117188 407.621094 837.410156 400.214844 844.285156 395.457031 Z M 497.789062 124.652344 C 448.59375 155.859375 414.207031 207.691406 402.570312 264.285156 C 399.394531 280.152344 397.808594 296.546875 398.335938 312.945312 C 398.335938 318.234375 406.273438 318.234375 406.273438 312.945312 C 404.15625 257.410156 426.375 201.875 464.992188 161.675781 C 476.101562 150.570312 488.269531 140.519531 501.492188 132.058594 C 505.726562 128.882812 502.023438 122.007812 497.789062 124.652344 Z M 433.25 340.449219 C 449.652344 318.234375 467.636719 297.078125 486.679688 276.980469 C 490.382812 273.277344 484.566406 267.457031 480.863281 271.160156 C 461.289062 291.789062 443.300781 313.472656 426.375 336.21875 C 423.199219 340.449219 430.078125 344.679688 433.25 340.449219 Z M 860.15625 280.679688 C 861.214844 296.546875 860.15625 312.945312 857.511719 328.8125 C 856.453125 333.574219 864.386719 335.6875 864.917969 330.929688 C 875.496094 272.21875 860.15625 210.335938 824.710938 162.734375 C 814.660156 149.511719 803.550781 136.816406 790.328125 126.238281 C 786.625 123.066406 780.804688 128.355469 784.507812 132.058594 C 829.472656 168.550781 856.980469 223.558594 860.15625 280.679688 Z M 658.605469 41.613281 C 659.136719 41.613281 659.664062 42.140625 660.191406 42.140625 C 660.191406 42.140625 660.722656 42.140625 660.722656 42.140625 C 660.722656 42.140625 661.25 42.140625 661.25 42.140625 C 661.25 42.140625 661.78125 42.140625 661.78125 42.140625 C 661.78125 42.140625 662.308594 42.140625 662.308594 42.671875 C 662.839844 42.671875 663.367188 43.199219 663.894531 43.199219 C 665.484375 44.257812 667.597656 45.316406 669.1875 46.371094 C 669.1875 46.371094 669.714844 46.371094 669.714844 46.902344 C 670.242188 47.429688 670.242188 47.429688 670.773438 47.960938 C 671.300781 48.488281 672.359375 49.546875 672.890625 50.074219 C 673.417969 50.605469 674.476562 51.664062 675.003906 52.191406 C 675.535156 52.71875 675.535156 53.25 676.0625 53.25 C 676.0625 53.25 676.59375 53.777344 676.59375 53.777344 C 676.0625 53.25 676.59375 53.777344 676.59375 53.777344 C 677.648438 55.363281 680.296875 56.421875 681.882812 55.363281 C 683.46875 54.308594 684.527344 51.664062 683.46875 50.074219 C 677.648438 42.140625 669.714844 36.324219 660.722656 33.148438 C 658.605469 32.621094 656.488281 33.679688 655.960938 35.792969 C 655.433594 38.96875 656.488281 41.082031 658.605469 41.613281 Z M 712.035156 68.058594 C 712.5625 67.53125 712.5625 67.53125 713.09375 67 C 713.09375 67 713.621094 66.472656 714.152344 66.472656 C 715.210938 65.941406 715.738281 65.414062 716.796875 64.886719 C 717.324219 64.355469 718.382812 63.828125 718.910156 63.828125 C 718.910156 63.828125 720.5 63.296875 719.441406 63.296875 C 719.96875 63.296875 720.5 62.769531 721.027344 62.769531 C 725.261719 61.183594 727.90625 60.652344 732.136719 60.652344 C 734.253906 60.652344 736.371094 59.066406 736.371094 56.421875 C 736.371094 54.308594 734.78125 52.71875 732.136719 52.191406 C 722.613281 52.191406 713.621094 55.363281 706.746094 61.710938 C 705.15625 63.296875 705.15625 65.941406 706.746094 67.53125 C 708.332031 69.644531 710.449219 69.644531 712.035156 68.058594 Z M 671.832031 77.578125 C 669.1875 77.578125 666.542969 77.578125 663.367188 77.578125 C 662.308594 77.578125 661.25 78.109375 660.722656 78.636719 C 660.191406 79.164062 659.664062 80.222656 659.664062 81.28125 C 659.664062 83.398438 661.25 85.511719 663.894531 85.511719 C 666.542969 85.511719 669.1875 85.511719 672.359375 85.511719 C 673.417969 85.511719 674.476562 84.984375 675.003906 84.453125 C 675.535156 83.925781 676.0625 82.867188 676.0625 81.808594 C 676.0625 79.695312 674.476562 77.578125 671.832031 77.578125 Z M 671.832031 77.578125 " fill-opacity="1" fill-rule="nonzero"/><path fill="#f8be64" d="M 1106.140625 538.261719 C 1106.667969 542.492188 1104.554688 547.253906 1100.851562 549.898438 C 1099.265625 550.957031 1097.148438 552.015625 1095.5625 552.015625 C 1093.445312 552.015625 1091.328125 552.015625 1089.210938 550.957031 C 1084.980469 549.371094 1082.863281 545.667969 1082.335938 541.433594 C 1081.808594 537.203125 1083.921875 532.445312 1087.625 529.800781 C 1091.328125 527.15625 1095.5625 527.15625 1099.265625 528.742188 C 1102.964844 530.328125 1105.613281 534.03125 1106.140625 538.261719 Z M 1036.839844 496.476562 C 1032.609375 494.890625 1028.378906 494.890625 1025.203125 497.535156 C 1021.5 500.179688 1019.382812 504.410156 1019.914062 509.171875 C 1020.441406 513.402344 1023.085938 517.105469 1026.789062 518.691406 C 1028.90625 519.75 1031.023438 519.75 1033.136719 519.75 C 1035.253906 519.75 1036.839844 518.691406 1038.429688 517.632812 C 1042.132812 514.988281 1044.246094 510.757812 1043.71875 506 C 1043.71875 501.765625 1041.074219 498.066406 1036.839844 496.476562 Z M 1244.210938 382.761719 C 1239.976562 369.011719 1230.457031 358.960938 1216.703125 354.199219 C 1198.1875 347.851562 1177.027344 355.257812 1159.039062 373.769531 C 1158.511719 374.828125 1157.453125 375.355469 1156.925781 376.414062 L 1172.792969 392.8125 C 1174.382812 392.28125 1175.441406 391.222656 1176.496094 390.167969 C 1184.960938 381.703125 1195.542969 376.414062 1204.003906 376.414062 C 1208.765625 376.414062 1213 378.53125 1216.171875 382.234375 C 1225.695312 393.339844 1221.464844 411.851562 1213.527344 424.015625 C 1210.355469 429.304688 1204.535156 435.652344 1196.601562 438.828125 C 1191.839844 440.414062 1187.078125 440.941406 1181.257812 441.472656 C 1177.554688 442 1173.851562 442.527344 1169.621094 443.058594 C 1148.988281 447.289062 1131.53125 463.15625 1123.597656 485.371094 C 1123.070312 486.429688 1123.070312 487.488281 1123.070312 488.542969 L 1145.816406 495.421875 C 1145.816406 494.890625 1146.34375 494.890625 1146.34375 494.363281 C 1149.519531 485.898438 1154.28125 478.496094 1160.628906 473.207031 C 1165.917969 468.972656 1172.265625 466.328125 1182.316406 465.273438 L 1183.902344 465.273438 C 1192.367188 464.214844 1200.832031 463.15625 1209.296875 459.453125 C 1216.703125 455.75 1223.578125 450.460938 1229.398438 443.058594 C 1243.679688 427.191406 1249.5 401.800781 1244.210938 382.761719 Z M 1114.074219 326.167969 C 1105.613281 310.828125 1087.625 303.425781 1069.109375 307.128906 C 1049.007812 311.359375 1031.023438 327.226562 1019.914062 351.554688 C 1019.382812 353.140625 1018.855469 354.199219 1018.855469 355.785156 L 1040.015625 364.777344 C 1040.542969 363.722656 1041.601562 362.664062 1042.132812 361.605469 C 1049.539062 345.738281 1064.347656 327.753906 1081.808594 330.929688 C 1086.566406 331.457031 1089.742188 333.574219 1091.859375 337.273438 C 1095.5625 343.621094 1096.617188 353.671875 1093.972656 363.722656 C 1091.859375 372.183594 1087.097656 379.589844 1080.75 385.40625 C 1077.046875 388.578125 1072.285156 391.753906 1067.523438 394.925781 C 1063.820312 397.570312 1059.589844 400.214844 1055.886719 402.859375 C 1037.898438 417.140625 1027.847656 437.769531 1027.847656 460.511719 C 1027.847656 461.570312 1027.847656 462.628906 1028.378906 463.683594 L 1051.652344 463.15625 C 1052.183594 462.097656 1052.183594 460.511719 1052.183594 459.453125 C 1052.183594 438.828125 1065.9375 425.074219 1078.105469 417.140625 C 1094.503906 406.035156 1108.257812 395.457031 1115.664062 376.945312 C 1122.539062 358.429688 1122.011719 339.917969 1114.074219 326.167969 Z M 1114.074219 326.167969 " fill-opacity="1" fill-rule="nonzero"/></svg>