<svg xmlns="http://www.w3.org/2000/svg" xmlns:xlink="http://www.w3.org/1999/xlink" width="480" zoomAndPan="magnify" viewBox="0 0 360 215.999996" height="288" preserveAspectRatio="xMidYMid meet" version="1.0"><path fill="#ffffff" d="M 179.40625 0.878906 C 110.742188 0.878906 47.546875 32.183594 6.03125 86.75 C -0.441406 95.25 -0.441406 107.117188 6.027344 115.605469 C 47.546875 170.183594 110.742188 201.488281 179.40625 201.488281 C 248.070312 201.488281 311.265625 170.183594 352.78125 115.617188 C 359.253906 107.117188 359.253906 95.261719 352.785156 86.761719 C 311.265625 32.183594 248.070312 0.878906 179.40625 0.878906 Z M 333.871094 101.21875 C 296.882812 149.839844 240.582031 177.726562 179.40625 177.726562 C 118.230469 177.726562 61.929688 149.839844 24.9375 101.148438 C 61.929688 52.527344 118.230469 24.640625 179.40625 24.640625 C 240.582031 24.640625 296.882812 52.527344 333.871094 101.148438 C 333.871094 101.152344 333.871094 101.210938 333.871094 101.21875 Z M 333.871094 101.21875 " fill-opacity="1" fill-rule="nonzero"/><path fill="#ffffff" d="M 179.40625 31.628906 C 141.054688 31.628906 109.851562 62.832031 109.851562 101.183594 C 109.851562 139.535156 141.054688 170.734375 179.40625 170.734375 C 217.757812 170.734375 248.957031 139.535156 248.957031 101.183594 C 248.957031 62.832031 217.757812 31.628906 179.40625 31.628906 Z M 179.40625 146.972656 C 154.160156 146.972656 133.617188 126.429688 133.617188 101.183594 C 133.617188 75.9375 154.160156 55.394531 179.40625 55.394531 C 204.652344 55.394531 225.195312 75.9375 225.195312 101.183594 C 225.195312 126.429688 204.652344 146.972656 179.40625 146.972656 Z M 179.40625 146.972656 " fill-opacity="1" fill-rule="nonzero"/></svg>